<svg width="500" height="500" viewBox="0 0 500 500" fill="none" xmlns="http://www.w3.org/2000/svg">
<rect width="500" height="500" fill="white"/>
<g clip-path="url(#clip0_2020_12)">
<path d="M75 91H259.148V353.929H75V91Z" fill="black"/>
<path d="M279.352 409V185.654H323.738V217.779H334.452L323.738 228.488C323.738 214.006 327.718 202.788 335.677 194.833C343.636 186.674 354.554 182.594 368.432 182.594C385.37 182.594 398.941 188.612 409.145 200.646C419.349 212.476 424.451 228.386 424.451 248.374V291.208C424.451 304.466 422.104 316.092 417.41 326.087C412.92 335.877 406.492 343.526 398.124 349.033C389.757 354.336 379.86 356.988 368.432 356.988C354.554 356.988 343.636 353.01 335.677 345.056C327.718 336.897 323.738 325.577 323.738 311.095L334.452 321.804H323.738L325.269 363.107V409H279.352ZM351.901 317.214C360.473 317.214 367.003 314.868 371.493 310.177C376.187 305.282 378.534 298.449 378.534 289.678V249.904C378.534 240.93 376.187 234.097 371.493 229.405C367.003 224.714 360.473 222.369 351.901 222.369C343.534 222.369 337.003 224.816 332.31 229.712C327.616 234.403 325.269 241.134 325.269 249.904V289.678C325.269 298.449 327.616 305.282 332.31 310.177C337.003 314.868 343.534 317.214 351.901 317.214Z" fill="black"/>
</g>
<defs>
<clipPath id="clip0_2020_12">
<rect width="349.451" height="318" fill="white" transform="translate(75 91)"/>
</clipPath>
</defs>
</svg>
